<svg xmlns="http://www.w3.org/2000/svg" xmlns:xlink="http://www.w3.org/1999/xlink" viewBox="0 0 66 65" fill="#fff" fill-rule="evenodd" stroke="#000" stroke-linecap="round" stroke-linejoin="round"><use xlink:href="#A" x=".5" y=".5"/><symbol id="A" overflow="visible"><g stroke="none"><path d="M32 7.216c13.68 0 24.77 11.07 24.77 24.724S45.68 56.664 32 56.664 7.23 45.594 7.23 31.94 18.32 7.216 32 7.216" fill="#198cff"/><path d="M1.033 31.94C1.033 49.007 14.9 62.835 32 62.835s30.967-13.84 30.967-30.908S49.1 1.02 32 1.02 1.033 14.873 1.033 31.94zm6.196 0c0 13.654 11.09 24.724 24.77 24.724S56.77 45.594 56.77 31.94 45.68 7.216 32 7.216 7.23 18.286 7.23 31.94z"/><g fill="#000"><path d="M0 31.94c0 17.643 14.324 31.94 32 31.94s32-14.297 32-31.94S49.676 0 32 0 0 14.297 0 31.94zm1.033 0C1.033 14.873 14.887 1.032 32 1.032S62.967 14.873 62.967 31.94 49.113 62.848 32 62.848 1.033 49.007 1.033 31.94zm7.23 0c0 13.078 10.622 23.693 23.738 23.693S55.738 45.03 55.738 31.94C55.738 18.862 45.117 8.247 32 8.247S8.262 18.85 8.262 31.94zm-1.033 0C7.23 18.286 18.32 7.216 32 7.216s24.77 11.07 24.77 24.724S45.68 56.664 32 56.664 7.23 45.594 7.23 31.94z" opacity=".5"/><path d="M42.65 57.775c9.428-4.002 16.027-13.32 16.027-24.162 0-14.5-11.816-26.263-26.38-26.263-14.578 0-26.38 11.766-26.38 26.263 0 14.457 11.75 26.196 26.26 26.263h-.134c-15.29 0-27.695-12.342-27.695-27.562S16.738 4.74 32.027 4.74 59.722 17.082 59.722 32.3c0 11.485-7.054 21.324-17.073 25.473zM31.5 60.184c17.086 0 30.927-13.788 30.927-30.788 0-1.58-.12-3.146-.35-4.658a30.58 30.58 0 0 1 .885 7.322c0 17-13.854 30.788-30.927 30.788-15.5 0-28.325-11.338-30.578-26.13 3.3 13.466 15.5 23.466 30.042 23.466z" fill-opacity=".1"/></g><path d="M32 13.4c10.26 0 18.575 8.3 18.575 18.54S42.26 50.48 32 50.48s-18.575-8.3-18.575-18.54C13.412 21.7 21.74 13.4 32 13.4z" fill="#f3f3f3"/><g fill="#000"><path d="M32 13.4c-10.26 0-18.575 8.3-18.575 18.54S21.74 50.48 32 50.48s18.575-8.3 18.575-18.54S42.26 13.4 32 13.4zm0-1.03c10.837 0 19.608 8.768 19.608 19.57 0 10.816-8.785 19.57-19.608 19.57s-19.608-8.768-19.608-19.57C12.38 21.124 21.163 12.37 32 12.37z" fill-opacity=".25"/><path d="M40.248 31.94c0 4.563-3.699 8.261-8.262 8.261s-8.261-3.699-8.261-8.261 3.699-8.262 8.261-8.262 8.262 3.699 8.262 8.262z" fill-opacity=".05"/><path d="M39.215 31.94c0-3.99-3.232-7.215-7.23-7.215s-7.23 3.226-7.23 7.215 3.232 7.215 7.23 7.215c3.997-.013 7.23-3.24 7.23-7.215zm1.033 0c0 4.563-3.699 8.261-8.262 8.261s-8.261-3.699-8.261-8.261 3.699-8.262 8.261-8.262 8.262 3.699 8.262 8.262z" fill-opacity=".15"/></g><path d="M40.248 31.94c0-4.563-3.699-8.262-8.262-8.262s-8.261 3.699-8.261 8.262 3.699 8.262 8.261 8.262 8.262-3.699 8.262-8.262zm1.033 0c0 5.127-4.158 9.276-9.294 9.276s-9.294-4.15-9.294-9.276 4.158-9.276 9.294-9.276 9.293 4.149 9.293 9.276z"/><path d="M36.117 33.92V19.57h-8.262v26.785h8.262V37.75l-2.065-1.914zm-8.247-5.74v3.828l2.065-1.914z"/><path d="M36.117 32.89V18.54h-8.262v26.785h8.262V36.72l-2.065-1.914zm-8.248-5.743v3.828l2.065-1.914z" fill="#4c4c4c"/><path d="M35.085 33.332v-12.73H28.89v24.724h6.196v-7.228l-1.544-1.958v-1.044zm-6.183-.763l1.542-1.727v-1.044l-1.542-1.767z" fill="#7f7f7f"/></g></symbol></svg>