<?xml version="1.0" encoding="UTF-8"?><svg xmlns="http://www.w3.org/2000/svg" xmlns:xlink="http://www.w3.org/1999/xlink" width="72px" height="72px" viewBox="0 0 72 72" version="1.1"><title>deezer</title><g id="providers-list" stroke="none" stroke-width="1" fill="none" fill-rule="evenodd"><g id="deezer"><rect id="Path" fill="#191619" x="0" y="0" width="72" height="72" rx="4"/><g id="Group" transform="translate(10.000000, 22.000000)"><path id="Fill-2" fill="#E20613" d="M0 28.81h9.42v-2.863H0z"/><path id="Fill-3" fill="#E20613" d="M0 24.994h9.42v-2.862H0z"/><path id="Fill-4" fill="#E20613" d="M0 21.433h9.42V18.57H0z"/><path id="Fill-5" fill="#F2987A" d="M0 17.616h9.42v-2.862H0z"/><path id="Fill-6" fill="#F2987A" d="M0 14.055h9.42v-2.862H0z"/><path id="Fill-7" fill="#FFEC00" d="M10.654 28.81h9.42v-2.863h-9.42z"/><path id="Fill-8" fill="#FFEC00" d="M10.654 24.994h9.42v-2.862h-9.42z"/><path id="Fill-9" fill="#FFEC00" d="M10.654 21.433h9.42V18.57h-9.42z"/><path id="Fill-10" fill="#E5007E" d="M21.307 28.81h9.42v-2.863h-9.42z"/><path id="Fill-11" fill="#E5007E" d="M21.307 24.994h9.42v-2.862h-9.42z"/><path id="Fill-12" fill="#E5007E" d="M21.307 21.433h9.42V18.57h-9.42z"/><path id="Fill-13" fill="#F19DC3" d="M21.307 17.616h9.42v-2.862h-9.42z"/><path id="Fill-14" fill="#F19DC3" d="M21.307 14.055h9.42v-2.862h-9.42z"/><path id="Fill-15" fill="#F19DC3" d="M21.307 10.24h9.42V7.377h-9.42z"/><path id="Fill-16" fill="#F19DC3" d="M21.307 6.424h9.42V3.56h-9.42z"/><path id="Fill-17" fill="#C7D300" d="M31.707 28.81h9.42v-2.863h-9.42z"/><path id="Fill-18" fill="#C7D300" d="M31.707 24.994h9.42v-2.862h-9.42z"/><path id="Fill-19" fill="#C7D300" d="M31.707 21.433h9.42V18.57h-9.42z"/><path id="Fill-20" fill="#E4E89A" d="M31.707 17.616h9.42v-2.862h-9.42z"/><path id="Fill-21" fill="#E4E89A" d="M31.707 14.055h9.42v-2.862h-9.42z"/><path id="Fill-22" fill="#40BFEF" d="M42.361 28.81h9.42v-2.863h-9.42z"/><path id="Fill-23" fill="#40BFEF" d="M42.361 24.994h9.42v-2.862h-9.42z"/><path id="Fill-24" fill="#40BFEF" d="M42.361 21.433h9.42V18.57h-9.42z"/><path id="Fill-25" fill="#BCE3F9" d="M42.361 17.617h9.42v-2.863h-9.42z"/><path id="Fill-26" fill="#BCE3F9" d="M42.361 14.055h9.42v-2.862h-9.42z"/><path id="Fill-27" fill="#BCE3F9" d="M42.361 10.239h9.42V7.377h-9.42z"/><path id="Fill-28" fill="#BCE3F9" d="M42.361 6.423h9.42V3.561h-9.42z"/><path id="Fill-29" fill="#BCE3F9" d="M42.361 2.863h9.42V0h-9.42z"/></g></g></g><metadata><rdf:RDF xmlns:rdf="http://www.w3.org/1999/02/22-rdf-syntax-ns#" xmlns:rdfs="http://www.w3.org/2000/01/rdf-schema#" xmlns:dc="http://purl.org/dc/elements/1.1/"><rdf:Description about="https://iconscout.com/legal#licenses" dc:title="deezer" dc:description="deezer" dc:publisher="Iconscout" dc:date="2017-09-26" dc:format="image/svg+xml" dc:language="en"><dc:creator><rdf:Bag><rdf:li>Luc Chaffard</rdf:li></rdf:Bag></dc:creator></rdf:Description></rdf:RDF></metadata></svg>